<?xml version="1.0" encoding="UTF-8"?>
<svg id="Calque_1" data-name="Calque 1" xmlns="http://www.w3.org/2000/svg" viewBox="0 0 1126.84 545.06">
  <defs>
    <style>
      .cls-1 {
        fill: #1c2226;
        font-family: ExpletusSans-Regular, 'Expletus Sans';
        font-size: 263px;
        font-variation-settings: 'wght' 400;
      }

      .cls-2 {
        fill: #0455bf;
      }

      .cls-3 {
        fill: #f7931e;
      }

      .cls-4 {
        fill: #bf3636;
        font-family: FreestyleScript-Regular, 'Freestyle Script';
        font-size: 250px;
      }

      .cls-5 {
        fill: #666;
        font-family: ExpletusSansRoman-Bold, 'Expletus Sans';
        font-size: 200px;
        font-variation-settings: 'wght' 700;
        font-weight: 700;
      }
    </style>
  </defs>
  <text class="cls-1" transform="translate(434.81 468) scale(.77 1)"><tspan x="0" y="0">eb</tspan></text>
  <g>
    <path class="cls-2" d="m442.94,274.22c-3.37,34.25-7.26,68.39-14.15,102.21-2.23,10.49-4.79,21.16-8.55,31.5-1.54,4.28-3.84,9.46-6.71,13.85-6.51,10.32-18.59,15.59-29.79,9.16-10.62-6.33-15.45-19.28-19.63-29.45-6.19-15.78-10.27-32.07-16.62-47.37-.57-1.49-2.14-4.35-2.44-4.79,0,0,.14.16.23.23,1.94,1.63,3.71,2.32,6.66,2.53,3.54.11,7.15-1.39,9.23-4.23.11-.16.19-.31.28-.45.01-.01.03-.1.02-.05-.2.45-.53,1.45-.84,2.68-1.65,7.28-2.23,14.77-2.87,22.81-1.46,19.96-1.84,40.81-3.62,61.14-1.38,12.27-2.41,30.66-10.69,40.81-4.78,5.99-13.97,8.71-20.9,4.84-4.68-2.39-7.79-7.13-9.64-11.27-2.44-5.36-4.03-10.77-5.69-16.05-3.27-11.35-8.17-27.41-11.95-38.37-12.7-37.17-31.32-72.25-57.57-101.6-17.31-19.85-37.5-37.05-59.24-52.02,0,0,8.68-13.64,8.68-13.64,24.08,14.21,46.29,31.46,65.83,51.55,29.58,30.2,51.42,67.62,66.08,107.08,4.87,12.81,9.17,26.14,13.35,39.02,1.47,4.39,2.87,8.76,4.69,12.64.23.45.46.89.57,1.04-.73-1.16-3.19-2.71-5.11-3.11-2.8-.72-6.1-.31-8.46,1.39-.12.08-.24.17-.36.26-.53.47-.68.59-.91.87,0,0-.07.1-.07.1l-.04.03-.07.07s-.08.11-.11.16c0-.04,0-.03.02-.07,2.9-8.13,3.19-16.85,4-25.96,1.41-20.26,1.54-40.15,2.75-60.82.98-11.8,1.33-31.53,9.37-41.18,6.27-7.69,17.41-8.75,25.07-2.43,3.16,2.42,6.12,6.85,7.44,9.37,2.89,5.27,4.97,10.78,6.93,16.09,4.65,12.84,8.49,25.75,13.23,38.14,1.88,4.75,4.39,10.96,7.06,14.53.43.62.83.82.13.31-2.63-1.66-6.23-1.64-8.93-.13-.35.22-.74.46-.95.71,3.25-4.59,5.33-11.48,7.12-17.28,7.04-24.86,11.09-51.84,14.91-77.76,1.86-13.33,3.61-26.68,5.3-40.05,0,0,26.94,2.95,26.94,2.95h0Z"/>
    <path class="cls-3" d="m416.08,272.72c3.37-34.25,7.26-68.39,14.15-102.21,2.23-10.49,4.79-21.16,8.55-31.5,1.54-4.28,3.84-9.46,6.71-13.85,6.51-10.32,18.59-15.59,29.79-9.16,10.62,6.33,15.45,19.28,19.63,29.45,6.19,15.78,10.27,32.07,16.62,47.37.57,1.49,2.14,4.35,2.44,4.79,0,0-.14-.16-.23-.23-1.94-1.63-3.71-2.32-6.66-2.53-3.54-.11-7.15,1.39-9.23,4.23-.11.16-.19.31-.28.45-.01.01-.03.1-.02.05.2-.45.53-1.45.84-2.68,1.65-7.28,2.23-14.77,2.87-22.81,1.46-19.96,1.84-40.81,3.62-61.14,1.38-12.27,2.41-30.66,10.69-40.81,4.78-5.99,13.97-8.71,20.9-4.84,4.68,2.39,7.79,7.13,9.64,11.27,2.44,5.36,4.03,10.77,5.69,16.05,3.27,11.35,8.17,27.41,11.95,38.37,12.7,37.17,31.32,72.25,57.57,101.6,17.31,19.85,37.5,37.05,59.24,52.02,0,0-8.68,13.64-8.68,13.64-24.08-14.21-46.29-31.46-65.83-51.55-29.58-30.2-51.42-67.62-66.08-107.08-4.87-12.81-9.17-26.14-13.35-39.02-1.47-4.39-2.87-8.76-4.69-12.64-.23-.45-.46-.89-.57-1.04.73,1.16,3.19,2.71,5.11,3.11,2.8.72,6.1.31,8.46-1.39.12-.08.24-.17.36-.26.53-.47.68-.59.91-.87l.07-.1s.04-.03.04-.03l.07-.07s.08-.11.11-.16c0,.04,0,.03-.02.07-2.9,8.13-3.19,16.85-4,25.96-1.41,20.26-1.54,40.15-2.75,60.82-.98,11.8-1.33,31.53-9.37,41.18-6.27,7.69-17.41,8.75-25.07,2.43-3.16-2.42-6.12-6.85-7.44-9.37-2.89-5.27-4.97-10.78-6.93-16.09-4.65-12.84-8.49-25.75-13.23-38.14-1.88-4.75-4.39-10.96-7.06-14.53-.43-.62-.83-.82-.13-.31,2.63,1.66,6.23,1.64,8.93.13.35-.22.74-.46.95-.71-3.25,4.59-5.33,11.48-7.12,17.28-7.04,24.86-11.09,51.84-14.91,77.76-1.86,13.33-3.61,26.68-5.3,40.05,0,0-26.94-2.95-26.94-2.95h0Z"/>
  </g>
  <text class="cls-1" transform="translate(0 227.1) scale(.77 1)"><tspan x="0" y="0">Blog</tspan></text>
  <text class="cls-5" transform="translate(64.78 450.16) scale(.77 1)"><tspan x="0" y="0">&amp;</tspan></text>
  <text class="cls-4" transform="translate(768.25 430.16) scale(.82 1)"><tspan x="0" y="0">Bêta</tspan></text>
</svg>